<?xml version="1.0" encoding="UTF-8"?>
<svg width="128px" height="128px" viewBox="0 0 128 128" version="1.1" xmlns="http://www.w3.org/2000/svg" xmlns:xlink="http://www.w3.org/1999/xlink">
    <!-- Generator: Sketch 50.2 (55047) - http://www.bohemiancoding.com/sketch -->
    <title>resource-logo-icon--color</title>
    <desc>Created with Sketch.</desc>
    <defs></defs>
    <g id="resource-logo-icon--color" stroke="none" stroke-width="1" fill="none" fill-rule="evenodd">
        <path d="M42.0464211,82.570054 C44.7874173,77.571054 51.0614087,75.740554 56.0604019,78.481554 C61.0588951,81.222054 62.8893926,87.496054 60.1483963,92.495054 L43.6214189,122.638554 C40.8804227,127.637054 34.6064312,129.467554 29.6079381,126.726554 C24.6089449,123.986054 22.7789474,117.712054 25.5194437,112.713554 L42.0464211,82.570054 Z M102.480838,15.286554 C105.221335,10.287554 103.391337,4.01405403 98.392344,1.27305403 C93.3938509,-1.46744597 87.1198594,0.362554025 84.3788632,5.36155403 L67.8518858,35.505054 C65.1108895,40.503554 66.941387,46.777554 71.9398802,49.518554 C76.9388734,52.259054 83.2128648,50.428554 85.953861,45.430054 L102.480838,15.286554 Z" id="resource-logo-icon--arms--2" fill="#FF7227"></path>
        <path d="M112.713324,102.480554 C117.712318,105.221554 123.986309,103.391054 126.726805,98.392054 C129.467302,93.393554 127.637304,87.119554 122.638311,84.379054 L92.4953521,67.851554 C87.4963589,65.110554 81.2223675,66.941554 78.4813713,71.940054 C75.740875,76.938554 77.5713725,83.213054 82.5703657,85.953554 L112.713324,102.480554 Z M5.36197124,43.621054 C0.362978076,40.880554 -1.46751942,34.606554 1.27347683,29.607554 C4.01397308,24.609054 10.2879645,22.778554 15.2869577,25.519054 L45.4299164,42.046554 C50.4289096,44.787054 52.2594071,51.061054 49.5189109,56.060054 C46.7779146,61.058554 40.5039232,62.889054 35.50493,60.148554 L5.36197124,43.621054 Z" id="resource-logo-icon--arms--1" fill="#FF2E57"></path>
        <path d="M35.6729298,18.502054 C33.4374328,10.840554 37.8364268,2.81755403 45.4979164,0.582054025 C53.1594059,-1.65294597 61.1828949,2.74555403 63.4178918,10.407554 C65.6533888,18.069054 61.2543948,26.092054 53.5924053,28.327554 C45.9309158,30.562554 37.9079267,26.163554 35.6729298,18.502054 Z M64.5818903,117.592554 C62.3468933,109.931054 66.7458873,101.908054 74.4073768,99.672554 C82.0693663,97.437054 90.0923554,101.836054 92.3273523,109.497554 C94.5628493,117.159554 90.1638553,125.182554 82.5023658,127.418054 C74.8408762,129.653054 66.8173872,125.254054 64.5818903,117.592554 Z" id="resource-logo-icon--heads--2" fill="#38E4FF"></path>
        <path d="M109.497829,35.672554 C117.159318,33.437054 125.182807,37.836054 127.417804,45.497554 C129.653301,53.159554 125.254307,61.182554 117.592318,63.418054 C109.930828,65.653054 101.907839,61.254054 99.6728423,53.592554 C97.4373453,45.931054 101.836339,37.907554 109.497829,35.672554 Z M10.4074643,64.582054 C18.0694539,62.347054 26.0919429,66.745554 28.3274398,74.407554 C30.5629368,82.069054 26.1639428,90.092054 18.5024533,92.327554 C10.8409637,94.562554 2.81747472,90.163554 0.581977776,82.502054 C-1.65301917,74.840554 2.74597482,66.817554 10.4074643,64.582054 Z" id="resource-logo-icon--heads--1" fill="#7348FF"></path>
    </g>
</svg>